<svg xmlns="http://www.w3.org/2000/svg" width="850" height="336" viewBox="0 0 850 336" role="img" font-family="'Arial Black',system-ui,-apple-system,'Segoe UI',Roboto,Helvetica,Arial,sans-serif"><defs><pattern id="dgb" width="19" height="19" patternUnits="userSpaceOnUse"><circle cx="1.6" cy="1.6" r="1.15" fill="#141109" opacity="0.05"/></pattern></defs><rect x="0.0" y="0.0" width="850.0" height="336.0" fill="#fdf6e6"/><rect x="0.0" y="0.0" width="850.0" height="336.0" fill="url(#dgb)"/><line x1="822.0" y1="11.0" x2="839.0" y2="11.0" stroke="#ff1f7a" stroke-width="3"/><line x1="839.0" y1="11.0" x2="839.0" y2="28.0" stroke="#ff1f7a" stroke-width="3"/><line x1="11.0" y1="325.0" x2="28.0" y2="325.0" stroke="#ff1f7a" stroke-width="3"/><line x1="11.0" y1="308.0" x2="11.0" y2="325.0" stroke="#ff1f7a" stroke-width="3"/><rect x="29.0" y="25.0" width="258.5" height="30.0" rx="3" fill="#141109"/><rect x="24.0" y="20.0" width="258.5" height="30.0" rx="3" fill="#1fbf5a" stroke="#141109" stroke-width="2.5"/><text x="37.0" y="40.2" fill="#141109" style="font-family:ui-monospace,'SF Mono','Cascadia Code','DejaVu Sans Mono',Menlo,Consolas,monospace;font-size:15px;font-weight:800;letter-spacing:0.5px">07 // VERIFIED BENCHMARKS</text><text x="24.0" y="72.0" fill="#5c574a" style="font-family:'Arial Black',system-ui,-apple-system,'Segoe UI',Roboto,Helvetica,Arial,sans-serif;font-size:12px;font-weight:600">every figure reproducible from the repo's own committed harness — no hand-waving</text><rect x="30.0" y="94.0" width="393.0" height="108.0" rx="3" fill="#141109"/><rect x="24.0" y="88.0" width="393.0" height="108.0" rx="3" fill="#ffffff" stroke="#141109" stroke-width="2.5"/><rect x="24.0" y="88.0" width="7.0" height="108.0" fill="#4d7cfe"/><line x1="31.0" y1="88.0" x2="31.0" y2="196.0" stroke="#141109" stroke-width="2.5"/><text x="46.0" y="114.0" fill="#141109" style="font-family:ui-monospace,'SF Mono','Cascadia Code','DejaVu Sans Mono',Menlo,Consolas,monospace;font-size:12px;font-weight:800">parlour-booking-system</text><rect x="248.2" y="101.0" width="154.8" height="19.0" rx="2" fill="#4d7cfe" stroke="#141109" stroke-width="1.5"/><text x="255.2" y="114.0" fill="#141109" style="font-family:ui-monospace,'SF Mono','Cascadia Code','DejaVu Sans Mono',Menlo,Consolas,monospace;font-size:9px;font-weight:800">LIGHTHOUSE PERFORMANCE</text><text x="46.0" y="148.0" fill="#141109" style="font-family:ui-monospace,'SF Mono','Cascadia Code','DejaVu Sans Mono',Menlo,Consolas,monospace;font-size:27px;font-weight:800">98/100</text><rect x="46.0" y="160.0" width="349.0" height="9.0" rx="1" fill="#ffffff" stroke="#141109" stroke-width="2"/><rect x="46.0" y="160.0" width="342.0" height="9.0" fill="#4d7cfe"/><line x1="388.0" y1="160.0" x2="388.0" y2="169.0" stroke="#141109" stroke-width="2"/><text x="46.0" y="186.0" fill="#5c574a" style="font-family:'Arial Black',system-ui,-apple-system,'Segoe UI',Roboto,Helvetica,Arial,sans-serif;font-size:10.3px;font-weight:600">Optimized React rendering &amp; GSAP animations</text><rect x="439.0" y="94.0" width="393.0" height="108.0" rx="3" fill="#141109"/><rect x="433.0" y="88.0" width="393.0" height="108.0" rx="3" fill="#ffffff" stroke="#141109" stroke-width="2.5"/><rect x="433.0" y="88.0" width="7.0" height="108.0" fill="#b06bff"/><line x1="440.0" y1="88.0" x2="440.0" y2="196.0" stroke="#141109" stroke-width="2.5"/><text x="455.0" y="114.0" fill="#141109" style="font-family:ui-monospace,'SF Mono','Cascadia Code','DejaVu Sans Mono',Menlo,Consolas,monospace;font-size:12px;font-weight:800">CompliSec</text><rect x="714.8" y="101.0" width="97.2" height="19.0" rx="2" fill="#b06bff" stroke="#141109" stroke-width="1.5"/><text x="721.8" y="114.0" fill="#141109" style="font-family:ui-monospace,'SF Mono','Cascadia Code','DejaVu Sans Mono',Menlo,Consolas,monospace;font-size:9px;font-weight:800">SCAN COVERAGE</text><text x="455.0" y="148.0" fill="#141109" style="font-family:ui-monospace,'SF Mono','Cascadia Code','DejaVu Sans Mono',Menlo,Consolas,monospace;font-size:27px;font-weight:800">10,000+</text><rect x="455.0" y="160.0" width="349.0" height="9.0" rx="1" fill="#ffffff" stroke="#141109" stroke-width="2"/><rect x="455.0" y="160.0" width="331.6" height="9.0" fill="#b06bff"/><line x1="786.5" y1="160.0" x2="786.5" y2="169.0" stroke="#141109" stroke-width="2"/><text x="455.0" y="186.0" fill="#5c574a" style="font-family:'Arial Black',system-ui,-apple-system,'Segoe UI',Roboto,Helvetica,Arial,sans-serif;font-size:10.3px;font-weight:600">Ports and services scanned accurately with Nmap/Nikto</text><rect x="30.0" y="218.0" width="393.0" height="108.0" rx="3" fill="#141109"/><rect x="24.0" y="212.0" width="393.0" height="108.0" rx="3" fill="#ffffff" stroke="#141109" stroke-width="2.5"/><rect x="24.0" y="212.0" width="7.0" height="108.0" fill="#8fd613"/><line x1="31.0" y1="212.0" x2="31.0" y2="320.0" stroke="#141109" stroke-width="2.5"/><text x="46.0" y="238.0" fill="#141109" style="font-family:ui-monospace,'SF Mono','Cascadia Code','DejaVu Sans Mono',Menlo,Consolas,monospace;font-size:12px;font-weight:800">mern-ecommerce</text><rect x="280.2" y="225.0" width="122.8" height="19.0" rx="2" fill="#8fd613" stroke="#141109" stroke-width="1.5"/><text x="287.2" y="238.0" fill="#141109" style="font-family:ui-monospace,'SF Mono','Cascadia Code','DejaVu Sans Mono',Menlo,Consolas,monospace;font-size:9px;font-weight:800">API RESPONSE TIME</text><text x="46.0" y="272.0" fill="#141109" style="font-family:ui-monospace,'SF Mono','Cascadia Code','DejaVu Sans Mono',Menlo,Consolas,monospace;font-size:27px;font-weight:800">~45 ms</text><rect x="46.0" y="284.0" width="349.0" height="9.0" rx="1" fill="#ffffff" stroke="#141109" stroke-width="2"/><rect x="46.0" y="284.0" width="52.4" height="9.0" fill="#8fd613"/><line x1="98.3" y1="284.0" x2="98.3" y2="293.0" stroke="#141109" stroke-width="2"/><text x="46.0" y="310.0" fill="#5c574a" style="font-family:'Arial Black',system-ui,-apple-system,'Segoe UI',Roboto,Helvetica,Arial,sans-serif;font-size:10.3px;font-weight:600">Optimized MongoDB aggregations &amp; Express middleware</text><rect x="439.0" y="218.0" width="393.0" height="108.0" rx="3" fill="#141109"/><rect x="433.0" y="212.0" width="393.0" height="108.0" rx="3" fill="#ffffff" stroke="#141109" stroke-width="2.5"/><rect x="433.0" y="212.0" width="7.0" height="108.0" fill="#ff7a45"/><line x1="440.0" y1="212.0" x2="440.0" y2="320.0" stroke="#141109" stroke-width="2.5"/><text x="455.0" y="238.0" fill="#141109" style="font-family:ui-monospace,'SF Mono','Cascadia Code','DejaVu Sans Mono',Menlo,Consolas,monospace;font-size:12px;font-weight:800">react-native-companion</text><rect x="727.6" y="225.0" width="84.4" height="19.0" rx="2" fill="#ff7a45" stroke="#141109" stroke-width="1.5"/><text x="734.6" y="238.0" fill="#141109" style="font-family:ui-monospace,'SF Mono','Cascadia Code','DejaVu Sans Mono',Menlo,Consolas,monospace;font-size:9px;font-weight:800">BUNDLE SIZE</text><text x="455.0" y="272.0" fill="#141109" style="font-family:ui-monospace,'SF Mono','Cascadia Code','DejaVu Sans Mono',Menlo,Consolas,monospace;font-size:27px;font-weight:800">&lt; 15 MB</text><text x="455.0" y="310.0" fill="#5c574a" style="font-family:'Arial Black',system-ui,-apple-system,'Segoe UI',Roboto,Helvetica,Arial,sans-serif;font-size:10.3px;font-weight:600">Hermes engine enabled, optimized assets and code splitting</text></svg>